<svg width="300" height="400" viewBox="0 0 300 400" fill="none" xmlns="http://www.w3.org/2000/svg">
  <!-- Receipt background with tear effect -->
  <path d="M20 10 L280 10 L280 380 L275 385 L270 380 L265 385 L260 380 L255 385 L250 380 L245 385 L240 380 L235 385 L230 380 L225 385 L220 380 L215 385 L210 380 L205 385 L200 380 L195 385 L190 380 L185 385 L180 380 L175 385 L170 380 L165 385 L160 380 L155 385 L150 380 L145 385 L140 380 L135 385 L130 380 L125 385 L120 380 L115 385 L110 380 L105 385 L100 380 L95 385 L90 380 L85 385 L80 380 L75 385 L70 380 L65 385 L60 380 L55 385 L50 380 L45 385 L40 380 L35 385 L30 380 L25 385 L20 380 Z" 
       fill="#fffbeb" stroke="#fbbf24" stroke-width="1"/>
  
  <!-- Header -->
  <rect x="40" y="30" width="220" height="50" fill="#f59e0b" rx="4"/>
  <text x="150" y="50" font-family="Arial, sans-serif" font-size="16" font-weight="bold" fill="white" text-anchor="middle">
    LUMPER SERVICE
  </text>
  <text x="150" y="70" font-family="Arial, sans-serif" font-size="12" fill="white" text-anchor="middle">
    RECEIPT #LR-2025-0521
  </text>
  
  <!-- Company info -->
  <text x="50" y="105" font-family="Arial, sans-serif" font-size="10" fill="#92400e">
    Fast Unload Services LLC
  </text>
  <text x="50" y="118" font-family="Arial, sans-serif" font-size="9" fill="#92400e">
    Terminal 5, Dock 23
  </text>
  <text x="50" y="131" font-family="Arial, sans-serif" font-size="9" fill="#92400e">
    Chicago, IL 60632
  </text>
  
  <!-- Date/Time -->
  <rect x="180" y="95" width="70" height="40" rx="2" fill="#fef3c7" stroke="#f59e0b" stroke-width="1"/>
  <text x="215" y="110" font-family="Arial, sans-serif" font-size="8" font-weight="bold" fill="#92400e" text-anchor="middle">
    DATE
  </text>
  <text x="215" y="125" font-family="Arial, sans-serif" font-size="9" fill="#92400e" text-anchor="middle">
    05/20/2025
  </text>
  
  <!-- Service details -->
  <line x1="40" y1="150" x2="260" y2="150" stroke="#fbbf24" stroke-width="1" stroke-dasharray="5,5"/>
  
  <text x="50" y="170" font-family="Arial, sans-serif" font-size="10" font-weight="bold" fill="#374151">
    SERVICE DETAILS:
  </text>
  
  <!-- Service items -->
  <rect x="50" y="180" width="200" height="20" fill="#fef9c3"/>
  <text x="55" y="194" font-family="Arial, sans-serif" font-size="9" fill="#374151">
    Unload 53' Trailer - 24 Pallets
  </text>
  <text x="220" y="194" font-family="Arial, sans-serif" font-size="9" fill="#374151" text-anchor="end">
    $175.00
  </text>
  
  <rect x="50" y="205" width="200" height="20" fill="#fef9c3"/>
  <text x="55" y="219" font-family="Arial, sans-serif" font-size="9" fill="#374151">
    Sorting & Staging
  </text>
  <text x="220" y="219" font-family="Arial, sans-serif" font-size="9" fill="#374151" text-anchor="end">
    $50.00
  </text>
  
  <rect x="50" y="230" width="200" height="20" fill="#fef9c3"/>
  <text x="55" y="244" font-family="Arial, sans-serif" font-size="9" fill="#374151">
    Pallet Exchange
  </text>
  <text x="220" y="244" font-family="Arial, sans-serif" font-size="9" fill="#374151" text-anchor="end">
    $25.00
  </text>
  
  <line x1="150" y1="260" x2="250" y2="260" stroke="#92400e" stroke-width="2"/>
  
  <!-- Total -->
  <rect x="150" y="270" width="100" height="30" fill="#f59e0b" rx="2"/>
  <text x="170" y="290" font-family="Arial, sans-serif" font-size="12" font-weight="bold" fill="white">
    TOTAL: $250.00
  </text>
  
  <!-- Payment info -->
  <rect x="50" y="315" width="200" height="40" rx="2" fill="#dcfce7" stroke="#22c55e" stroke-width="1"/>
  <text x="150" y="330" font-family="Arial, sans-serif" font-size="10" font-weight="bold" fill="#15803d" text-anchor="middle">
    PAID - CASH
  </text>
  <text x="150" y="345" font-family="Arial, sans-serif" font-size="9" fill="#15803d" text-anchor="middle">
    Thank you for your business!
  </text>
  
  <!-- Signature line -->
  <line x1="50" y1="375" x2="130" y2="375" stroke="#6b7280" stroke-width="1"/>
  <text x="90" y="390" font-family="Arial, sans-serif" font-size="8" fill="#6b7280" text-anchor="middle">
    Driver Signature
  </text>
  
  <line x1="170" y1="375" x2="250" y2="375" stroke="#6b7280" stroke-width="1"/>
  <text x="210" y="390" font-family="Arial, sans-serif" font-size="8" fill="#6b7280" text-anchor="middle">
    Lumper Signature
  </text>
</svg>